<?xml version="1.0" encoding="utf-8"?>
<!-- Generator: Adobe Illustrator 17.0.0, SVG Export Plug-In . SVG Version: 6.00 Build 0)  -->
<!DOCTYPE svg PUBLIC "-//W3C//DTD SVG 1.1//EN" "http://www.w3.org/Graphics/SVG/1.1/DTD/svg11.dtd">
<svg version="1.1" id="lamp" xmlns="http://www.w3.org/2000/svg" xmlns:xlink="http://www.w3.org/1999/xlink" x="0px" y="0px"
	 width="500px" height="500px" viewBox="0 0 500 500" enable-background="new 0 0 500 500" xml:space="preserve">
<path fill="none" stroke="#2C6982" stroke-width="13" stroke-linecap="round" stroke-linejoin="round" stroke-miterlimit="10" d="
	M368.796,239.459c0-65.609-53.187-118.796-118.796-118.796S131.204,173.85,131.204,239.459c0,79.546,73.058,97.997,73.058,131.209
	v18.64h91.476v-18.64C295.738,342.069,368.796,319.005,368.796,239.459z"/>
<path fill="none" stroke="#2C6982" stroke-width="13" stroke-linecap="round" stroke-linejoin="round" stroke-miterlimit="10" d="
	M295.292,398.393c0-5.018-4.068-9.086-9.086-9.086H215.2c-5.018,0-9.086,4.068-9.086,9.086l0,0c0,5.018,4.068,9.086,9.086,9.086
	h71.006C291.224,407.478,295.292,403.411,295.292,398.393L295.292,398.393z"/>
<path fill="none" stroke="#2C6982" stroke-width="13" stroke-linecap="round" stroke-linejoin="round" stroke-miterlimit="10" d="
	M295.292,416.564c0-5.018-4.068-9.086-9.086-9.086H215.2c-5.018,0-9.086,4.068-9.086,9.086l0,0c0,5.018,4.068,9.086,9.086,9.086
	h71.006C291.224,425.65,295.292,421.582,295.292,416.564L295.292,416.564z"/>
<path fill="none" stroke="#2C6982" stroke-width="13" stroke-linecap="round" stroke-linejoin="round" stroke-miterlimit="10" d="
	M295.292,434.735c0-5.018-4.068-9.086-9.086-9.086H215.2c-5.018,0-9.086,4.068-9.086,9.086l0,0c0,5.018,4.068,9.086,9.086,9.086
	h71.006C291.224,443.821,295.292,439.753,295.292,434.735L295.292,434.735z"/>
<path fill="none" stroke="#2C6982" stroke-width="13" stroke-linecap="round" stroke-linejoin="round" stroke-miterlimit="10" d="
	M277.304,452.907c0-5.018-4.068-9.086-9.086-9.086h-35.031c-5.018,0-9.086,4.068-9.086,9.086l0,0c0,5.018,4.068,9.086,9.086,9.086
	h35.031C273.237,461.992,277.304,457.924,277.304,452.907L277.304,452.907z"/>
<path fill="#2C6982" d="M223.687,245.456c0.591,4.628,0.943,9.895,0.943,15.89v127.962c0,2.293,1.859,4.151,4.151,4.151
	s4.151-1.859,4.151-4.151V261.346c0-5.954-0.325-11.508-0.962-16.664C229.161,244.909,226.399,245.172,223.687,245.456z
	 M268.03,244.682c-0.637,5.156-0.963,10.71-0.963,16.664v127.962c0,2.293,1.859,4.151,4.151,4.151s4.151-1.859,4.151-4.151V261.346
	c0-5.995,0.352-11.263,0.943-15.89C273.601,245.172,270.839,244.909,268.03,244.682z"/>
<path fill="#C36558" d="M250,171.552c-7.223,0-7.784,9.735-7.784,12.718c0,6.859,3.035,12.804,7.784,17.782
	c4.749-4.978,7.784-10.923,7.784-17.782C257.784,181.286,257.223,171.552,250,171.552z M250,213.071
	c-2.087,1.607-4.363,3.134-6.825,4.573c-4.913,2.87-10.387,5.285-15.992,7.12c2.265,5.753,3.86,12.409,4.788,19.918
	c5.832-0.47,11.859-0.781,18.03-0.781s12.198,0.311,18.03,0.781c0.928-7.509,2.523-14.165,4.788-19.918
	c-5.606-1.836-11.08-4.25-15.992-7.12C254.363,216.205,252.087,214.678,250,213.071z M304.607,218.957
	c1.823-0.879,1.823-1.668,1.823-2.046c0-3.942-3.075-6.696-7.477-6.696c-4.927,0-9.963,3.291-13.965,9.08
	c3.902,0.755,7.56,1.138,10.704,1.138C299.467,220.432,302.633,219.908,304.607,218.957z M193.571,216.91
	c0,0.379,0,1.168,1.823,2.046c1.974,0.951,5.14,1.476,8.916,1.476c3.144,0,6.802-0.383,10.703-1.138
	c-4.001-5.789-9.038-9.08-13.964-9.08C196.646,210.214,193.571,212.968,193.571,216.91z M250,147.101
	c-50.99,0-92.326,34.016-92.326,75.976c0,34.438,27.846,26.376,66.018,22.378c-0.001,0-0.003,0-0.004,0
	c-1.008-7.899-2.716-13.927-4.582-18.469c-5.099,1.136-10.137,1.749-14.796,1.749c-5.144,0-9.357-0.774-12.521-2.3
	c-4.205-2.027-6.52-5.41-6.52-9.525c0-8.551,6.784-14.999,15.78-14.999c8.143,0,16.062,5.129,21.727,14.072
	c0.244,0.386,0.484,0.778,0.72,1.176c7.064-2.187,14.279-5.451,20.257-9.736c-6.424-6.887-9.839-14.802-9.839-23.153
	c0-12.77,6.315-21.021,16.087-21.021c9.772,0,16.087,8.251,16.087,21.021c0,8.351-3.416,16.266-9.84,23.153
	c5.979,4.285,13.193,7.549,20.258,9.736c0.235-0.398,0.476-0.79,0.72-1.176c5.665-8.943,13.584-14.072,21.728-14.072
	c8.996,0,15.78,6.448,15.78,14.999c0,4.116-2.315,7.499-6.52,9.525c-3.164,1.526-7.378,2.3-12.521,2.3
	c-4.66,0-9.698-0.614-14.796-1.749c-1.866,4.543-3.574,10.57-4.583,18.469c-0.001,0-0.002,0-0.003,0
	c38.171,3.998,66.016,12.059,66.016-22.378C342.326,181.117,300.99,147.101,250,147.101z"/>
<g id="Camada_6">
	
		<line fill="none" stroke="#2C6982" stroke-width="9" stroke-linecap="round" stroke-linejoin="round" stroke-miterlimit="10" x1="250" y1="88.91" x2="250" y2="32.6"/>
	
		<line fill="none" stroke="#2C6982" stroke-width="9" stroke-linecap="round" stroke-linejoin="round" stroke-miterlimit="10" x1="356.454" y1="133.005" x2="396.271" y2="93.188"/>
	
		<line fill="none" stroke="#2C6982" stroke-width="9" stroke-linecap="round" stroke-linejoin="round" stroke-miterlimit="10" x1="400.549" y1="239.459" x2="456.858" y2="239.459"/>
	
		<line fill="none" stroke="#2C6982" stroke-width="9" stroke-linecap="round" stroke-linejoin="round" stroke-miterlimit="10" x1="99.451" y1="239.459" x2="43.142" y2="239.459"/>
	
		<line fill="none" stroke="#2C6982" stroke-width="9" stroke-linecap="round" stroke-linejoin="round" stroke-miterlimit="10" x1="143.546" y1="133.005" x2="103.729" y2="93.188"/>
	
		<circle display="none" fill="none" stroke="#000000" stroke-width="7" stroke-linecap="round" stroke-linejoin="round" stroke-miterlimit="10" cx="250" cy="239.459" r="118.796"/>
	
		<line fill="none" stroke="#2C6982" stroke-width="9" stroke-linecap="round" stroke-linejoin="round" stroke-miterlimit="10" x1="121.365" y1="186.176" x2="73.251" y2="166.247"/>
	
		<line fill="none" stroke="#2C6982" stroke-width="9" stroke-linecap="round" stroke-linejoin="round" stroke-miterlimit="10" x1="196.717" y1="110.823" x2="176.788" y2="62.709"/>
	
		<line fill="none" stroke="#2C6982" stroke-width="9" stroke-linecap="round" stroke-linejoin="round" stroke-miterlimit="10" x1="303.283" y1="110.823" x2="323.212" y2="62.709"/>
	
		<line fill="none" stroke="#2C6982" stroke-width="9" stroke-linecap="round" stroke-linejoin="round" stroke-miterlimit="10" x1="378.635" y1="186.176" x2="426.749" y2="166.247"/>
	
		<line fill="none" stroke="#2C6982" stroke-width="9" stroke-linecap="round" stroke-linejoin="round" stroke-miterlimit="10" x1="378.635" y1="292.741" x2="426.749" y2="312.67"/>
	
		<line fill="none" stroke="#2C6982" stroke-width="9" stroke-linecap="round" stroke-linejoin="round" stroke-miterlimit="10" x1="121.365" y1="292.741" x2="73.251" y2="312.67"/>
</g>
</svg>
